<svg width="50" height="50" viewBox="0 0 50 50" fill="none" xmlns="http://www.w3.org/2000/svg">
<circle cx="25" cy="25" r="25" fill="#616158"/>
<path d="M35.3448 26C35.8971 26 36.3448 25.5523 36.3448 25C36.3448 24.4477 35.8971 24 35.3448 24V26ZM14.6377 24.2929C14.2472 24.6834 14.2472 25.3166 14.6377 25.7071L21.0017 32.0711C21.3922 32.4616 22.0254 32.4616 22.4159 32.0711C22.8064 31.6805 22.8064 31.0474 22.4159 30.6569L16.759 25L22.4159 19.3431C22.8064 18.9526 22.8064 18.3195 22.4159 17.9289C22.0254 17.5384 21.3922 17.5384 21.0017 17.9289L14.6377 24.2929ZM35.3448 24L15.3448 24V26L35.3448 26V24Z" fill="#FFFCEF"/>
</svg>
