<svg width="50" height="50" viewBox="0 0 50 50" fill="none" xmlns="http://www.w3.org/2000/svg">
<circle cx="25" cy="25" r="25" fill="#616158"/>
<path d="M14.6552 24C14.1029 24 13.6552 24.4477 13.6552 25C13.6552 25.5523 14.1029 26 14.6552 26V24ZM35.3623 25.7071C35.7528 25.3166 35.7528 24.6834 35.3623 24.2929L28.9983 17.9289C28.6078 17.5384 27.9746 17.5384 27.5841 17.9289C27.1936 18.3195 27.1936 18.9526 27.5841 19.3431L33.241 25L27.5841 30.6569C27.1936 31.0474 27.1936 31.6805 27.5841 32.0711C27.9746 32.4616 28.6078 32.4616 28.9983 32.0711L35.3623 25.7071ZM14.6552 26L34.6552 26V24L14.6552 24V26Z" fill="#FFFCEF"/>
</svg>
