<svg width="53" height="54" viewBox="0 0 53 54" fill="none" xmlns="http://www.w3.org/2000/svg">
<g clip-path="url(#clip0_137_289)">
<path d="M26.5 4.43359C29.5485 4.43359 32.5029 5.02984 35.2823 6.20578C37.9685 7.34238 40.3825 8.96965 42.4569 11.0431C44.5304 13.1165 46.1587 15.5305 47.2942 18.2177C48.4702 20.9971 49.0664 23.9525 49.0664 27C49.0664 30.0475 48.4702 33.0029 47.2942 35.7823C46.1576 38.4685 44.5304 40.8825 42.4569 42.9569C40.3835 45.0304 37.9695 46.6587 35.2823 47.7942C32.5029 48.9702 29.5475 49.5664 26.5 49.5664C23.4525 49.5664 20.4971 48.9702 17.7177 47.7942C15.0315 46.6576 12.6175 45.0304 10.5431 42.9569C8.46965 40.8835 6.84135 38.4695 5.70578 35.7823C4.52984 33.0029 3.93359 30.0475 3.93359 27C3.93359 23.9525 4.52984 20.9971 5.70578 18.2177C6.84238 15.5315 8.46965 13.1175 10.5431 11.0431C12.6165 8.96965 15.0305 7.34135 17.7177 6.20578C20.4971 5.02984 23.4525 4.43359 26.5 4.43359ZM26.5 0.5C11.865 0.5 0 12.365 0 27C0 41.635 11.865 53.5 26.5 53.5C41.135 53.5 53 41.6361 53 27C53 12.3639 41.135 0.5 26.5 0.5Z" fill="#616158"/>
<path d="M34.007 36.5917C33.5039 36.5917 33.0008 36.4002 32.6167 36.0162L25.1098 28.5092C24.7413 28.1407 24.5332 27.6397 24.5332 27.119V11.5679C24.5332 10.482 25.4141 9.60107 26.5 9.60107C27.5859 9.60107 28.4668 10.482 28.4668 11.5679V26.3033L35.3982 33.2347C36.1663 34.0028 36.1663 35.2481 35.3982 36.0162C35.0142 36.4002 34.5111 36.5917 34.008 36.5917H34.007Z" fill="#616158"/>
</g>
<defs>
<clipPath id="clip0_137_289">
<rect width="53" height="53" fill="white" transform="translate(0 0.5)"/>
</clipPath>
</defs>
</svg>
