<svg width="53" height="54" viewBox="0 0 53 54" fill="none" xmlns="http://www.w3.org/2000/svg">
<path d="M46.7891 7.53906H6.21094C2.78623 7.53906 0 10.3253 0 13.75V40.25C0 43.6747 2.78623 46.4609 6.21094 46.4609H46.7891C50.2138 46.4609 53 43.6747 53 40.25V13.75C53 10.3253 50.2138 7.53906 46.7891 7.53906ZM48.8594 40.25C48.8594 41.3916 47.9306 42.3203 46.7891 42.3203H6.21094C5.06937 42.3203 4.14062 41.3916 4.14062 40.25V13.75C4.14062 12.6084 5.06937 11.6797 6.21094 11.6797H46.7891C47.9306 11.6797 48.8594 12.6084 48.8594 13.75V40.25Z" fill="#616158"/>
<path d="M48.5079 10.1206L26.5 26.4903L4.49221 10.1206L2.02087 13.4429L26.5 31.6507L50.9792 13.4429L48.5079 10.1206Z" fill="#616158"/>
</svg>
