<svg width="53" height="53" viewBox="0 0 53 53" fill="none" xmlns="http://www.w3.org/2000/svg">
<path d="M26.5004 13.3057C19.2248 13.3057 13.3055 19.2247 13.3055 26.5002C13.3055 33.7757 19.2248 39.6947 26.5004 39.6947C33.7761 39.6947 39.6952 33.7757 39.6952 26.5002C39.6952 19.2247 33.7761 13.3057 26.5004 13.3057ZM26.5004 36.5892C20.9371 36.5892 16.411 32.0633 16.411 26.5002C16.411 20.937 20.9371 16.4111 26.5004 16.4111C32.0637 16.4111 36.5897 20.937 36.5897 26.5002C36.5897 32.0633 32.0637 36.5892 26.5004 36.5892Z" fill="#616158"/>
<path d="M38.9736 0H14.0264C6.2922 0 0 6.2922 0 14.0264V38.9736C0 46.7078 6.2922 53 14.0264 53H38.9736C46.7078 53 53 46.7078 53 38.9736V14.0264C53 6.2922 46.7078 0 38.9736 0ZM49.8945 38.9736C49.8945 44.9954 44.9954 49.8945 38.9736 49.8945H14.0264C8.00455 49.8945 3.10547 44.9954 3.10547 38.9736V14.0264C3.10547 8.00455 8.00455 3.10547 14.0264 3.10547H38.9736C44.9954 3.10547 49.8945 8.00455 49.8945 14.0264V38.9736Z" fill="#616158"/>
<path d="M41.2614 10.186C40.8525 10.186 40.4529 10.3517 40.1641 10.6415C39.8742 10.9303 39.7086 11.3299 39.7086 11.7388C39.7086 12.1477 39.8743 12.5483 40.1641 12.8371C40.4529 13.1259 40.8524 13.2915 41.2614 13.2915C41.6703 13.2915 42.0708 13.1259 42.3597 12.8371C42.6485 12.5483 42.8141 12.1477 42.8141 11.7388C42.8141 11.3309 42.6485 10.9303 42.3597 10.6415C42.0708 10.3517 41.6702 10.186 41.2614 10.186Z" fill="#616158"/>
</svg>
