<svg width="42" height="42" viewBox="0 0 42 42" fill="none" xmlns="http://www.w3.org/2000/svg">
<path d="M11.298 6.10596L4.1769 6.70824C3.64035 6.7536 3.4713 7.3458 3.9228 7.59444L9.7125 10.7797C10.1083 10.9973 10.039 11.5038 9.5949 11.639L3.0114 13.6458C2.52525 13.7945 2.5032 14.3699 2.97885 14.5438L9.9834 17.1058C10.4359 17.2712 10.4443 17.8122 9.99705 17.9878L3.72015 20.4464C3.2319 20.638 3.2991 21.2419 3.8199 21.3536L9.3639 22.5397C9.8532 22.6447 9.95295 23.1966 9.52245 23.42L4.16115 26.2038C3.75585 26.4138 3.81465 26.927 4.25985 27.0682L9.61905 28.7633C10.0569 28.9019 10.123 29.4042 9.7314 29.6201L3.83775 32.8768C3.41565 33.1094 3.5322 33.658 4.02255 33.752L13.3623 35.5547C13.6899 35.6177 14.0112 35.4287 14.0542 35.1464L17.4048 13.4014C17.4226 13.2829 17.389 13.1636 17.3092 13.0654L11.823 6.3126C11.7064 6.16728 11.5048 6.08832 11.298 6.10596Z" fill="#33D7CE"/>
<path d="M39.732 35.9402C39.6081 36.9424 38.9907 37.8647 38.0173 38.5031C37.1658 39.0617 36.1011 39.3632 35.0091 39.3632C34.8537 39.3632 34.6972 39.3574 34.5408 39.3448L14.7882 37.7773C13.6164 37.6841 12.5296 37.2456 11.739 36.5476C11.2465 36.1124 10.8906 35.5958 10.6932 35.0406C10.5735 34.7038 10.5105 34.3535 10.5105 33.9982V8.47224C10.5105 7.61796 10.8706 6.79224 11.5258 6.12528C11.6046 6.04548 11.6875 5.96736 11.7736 5.8926C12.5863 5.1912 13.6993 4.76028 14.8911 4.68636L18.0726 4.4898L18.418 4.4688H18.4191L30.5613 3.71952L32.2948 3.61284C33.5496 3.53556 34.7917 3.8598 35.7472 4.515C36.7027 5.1702 37.2949 6.1026 37.3915 7.1064C37.4881 8.1102 37.0828 9.10392 36.2638 9.86832C35.4448 10.6327 34.2793 11.1056 33.0246 11.1838L30.0415 11.3677H30.0363L20.0025 11.9868V17.1142L20.3794 17.1318L22.3765 17.2276C22.3765 17.2276 22.3807 17.2276 22.3881 17.2284L26.7844 17.4384C28.0413 17.498 29.2162 17.9558 30.052 18.7093C30.8878 19.4628 31.3141 20.4515 31.2396 21.457C31.165 22.4624 30.5938 23.4032 29.652 24.0719C28.7815 24.6901 27.6601 25.0286 26.502 25.0286C26.4075 25.0286 26.313 25.0261 26.2185 25.0219L21.169 24.7808L20.0056 24.7254H20.0014V30.5584L29.6898 31.327L35.4763 31.7864C36.729 31.8856 37.8808 32.3795 38.6788 33.159C39.4779 33.9368 39.8559 34.9381 39.732 35.9402Z" fill="#7C76B5"/>
<path opacity="0.22" d="M31.2438 21.4628C31.1692 22.4683 30.598 23.4083 29.6562 24.0761C28.7857 24.6943 27.6643 25.0328 26.5062 25.0328C26.4117 25.0328 26.3172 25.0303 26.2227 25.0261L21.1743 24.785C29.7276 24.654 29.6604 24.0736 29.7622 20.8404C29.862 17.682 22.7251 17.2553 22.3923 17.2368L26.7886 17.4468C28.0455 17.5064 29.2204 17.9634 30.0552 18.7169C30.892 19.4695 31.3183 20.4574 31.2438 21.4628Z" fill="#262626"/>
<path opacity="0.22" d="M36.2681 9.87084C35.4491 10.6352 34.2836 11.1082 33.0288 11.1863L30.0468 11.3702C34.7256 10.8553 36.2933 9.63396 36.3164 7.48104C36.3426 5.08956 30.5445 3.75144 30.5445 3.75144L30.5655 3.72288L32.2991 3.6162C33.5538 3.53892 34.796 3.86316 35.7515 4.51836C36.707 5.17356 37.2981 6.10596 37.3958 7.10976C37.4934 8.11272 37.0871 9.1056 36.2681 9.87084Z" fill="#262626"/>
<path opacity="0.22" d="M39.7309 35.9386C39.607 36.9407 38.9896 37.8622 38.0163 38.5006C37.1647 39.0592 36.1 39.3607 35.008 39.3607C34.8526 39.3607 34.6962 39.3548 34.5397 39.3422L14.7882 37.7748C13.6164 37.6816 12.5296 37.2439 11.739 36.545C10.9483 35.847 10.5105 34.9381 10.5105 33.9965V33.4681C12.2724 37.7471 28.9842 38.3746 34.2405 38.4661C35.763 38.493 37.1836 37.8378 37.8966 36.7609C39.6196 34.1586 35.4753 31.7881 35.4753 31.7881L35.4763 31.7856C36.729 31.8847 37.8808 32.3786 38.6788 33.1573C39.4768 33.936 39.8548 34.9364 39.7309 35.9386Z" fill="#262626"/>
<path opacity="0.22" d="M29.6898 31.332H20.4571C19.6161 31.332 18.9682 30.7381 19.0827 30.0712L19.9983 24.7288L20.0067 24.7321H20.0025V30.5626L29.6898 31.332Z" fill="#7C76B5"/>
<path opacity="0.22" d="M20.0025 11.9885V17.1217L20.3794 17.1394L19.9983 17.2343L19.0701 11.3652H30.0405L30.0373 11.3694L20.0025 11.9885Z" fill="#7C76B5"/>
<path opacity="0.22" d="M18.0736 4.49232C16.7275 4.59648 11.9007 5.1786 11.6088 8.1774C11.2696 11.6642 10.5105 28.0266 10.5105 28.0266V8.47392C10.5105 7.61964 10.8706 6.79392 11.5258 6.12696C11.6046 6.04716 11.6875 5.96904 11.7736 5.89428C12.5863 5.19288 13.6993 4.76196 14.8911 4.68804L18.0736 4.49232Z" fill="#262626"/>
<path d="M13.1177 9.6306C12.8111 9.39456 13.1292 8.274 14.1425 8.06904C14.7641 7.94304 15.539 8.18496 15.5946 8.48904C15.6944 9.03252 13.5387 9.95484 13.1177 9.6306Z" fill="#33D7CE"/>
<path d="M32.5458 36.3317C32.2392 36.0956 32.5573 34.9751 33.5706 34.7701C34.1922 34.6441 34.9671 34.886 35.0227 35.1901C35.1225 35.7336 32.9668 36.6559 32.5458 36.3317Z" fill="#33D7CE"/>
<path d="M11.4985 32.9263C11.1919 32.6903 11.5101 31.5697 12.5233 31.3648C13.1449 31.2388 13.9198 31.4807 13.9755 31.7848C14.0752 32.3282 11.9196 33.2506 11.4985 32.9263Z" fill="#33D7CE"/>
<path d="M13.1061 24.9648C12.7995 24.7288 13.1176 23.6082 14.1309 23.4032C14.7525 23.2772 15.5274 23.5192 15.583 23.8232C15.6828 24.3667 13.5271 25.289 13.1061 24.9648Z" fill="#33D7CE"/>
<path d="M32.0324 5.68512C32.0051 5.4138 32.9963 4.89216 33.7817 5.20884C34.2647 5.40372 34.5839 5.88084 34.4043 6.08412C34.0841 6.44616 32.0702 6.05808 32.0324 5.68512Z" fill="#33D7CE"/>
<path d="M14.9331 11.2241C14.806 10.8679 15.3541 10.3236 15.9957 10.2581C16.7475 10.1808 17.4951 10.773 17.4027 11.1451C17.3292 11.4391 16.7391 11.5626 16.6005 11.5912C15.982 11.7197 15.0717 11.6096 14.9331 11.2241Z" fill="#33D7CE"/>
<path d="M34.4127 6.6066C34.7907 6.39156 35.6139 6.62424 35.9058 7.08624C36.2481 7.62804 35.7987 8.38908 35.3294 8.44284C34.9587 8.48568 34.6164 8.08164 34.5356 7.98588C34.1775 7.56336 34.0043 6.83928 34.4127 6.6066Z" fill="#33D7CE"/>
<path d="M36.2586 34.6937C36.6366 34.4786 37.4598 34.7113 37.7517 35.1733C38.094 35.7151 37.6446 36.4762 37.1753 36.5299C36.8046 36.5728 36.4623 36.1687 36.3815 36.073C36.0234 35.6504 35.8491 34.9264 36.2586 34.6937Z" fill="#33D7CE"/>
<path d="M12.3123 20.6002C12.6903 20.3851 13.5135 20.6178 13.8054 21.0798C14.1477 21.6216 13.6983 22.3826 13.229 22.4364C12.8583 22.4792 12.516 22.0752 12.4352 21.9794C12.0771 21.5569 11.9038 20.8328 12.3123 20.6002Z" fill="#33D7CE"/>
<path d="M13.6038 33.7336C13.9818 33.5185 14.805 33.7512 15.0969 34.2132C15.4392 34.755 14.9898 35.516 14.5204 35.5698C14.1498 35.6126 13.8075 35.2086 13.7266 35.1128C13.3686 34.6903 13.1943 33.9662 13.6038 33.7336Z" fill="#33D7CE"/>
<path d="M13.419 11.513C13.1313 11.4769 12.7785 11.6382 12.7029 11.9129C12.6357 12.1556 12.8005 12.4236 13.1082 12.5084C13.4515 12.6034 13.8127 12.4244 13.9146 12.1842C14.0227 11.9288 13.7959 11.7029 13.7823 11.6903C13.7487 11.6584 13.6237 11.5382 13.419 11.513Z" fill="#33D7CE"/>
<path d="M35.2023 36.0226C34.9146 35.9864 34.5618 36.1477 34.4862 36.4224C34.419 36.6652 34.5838 36.9331 34.8915 37.018C35.2348 37.1129 35.596 36.934 35.6979 36.6937C35.806 36.4384 35.5792 36.2124 35.5656 36.1998C35.532 36.1679 35.407 36.0478 35.2023 36.0226Z" fill="#33D7CE"/>
<path d="M32.4145 7.13664C32.5909 6.87456 33.3448 6.86532 33.6955 7.15596C33.7102 7.16856 33.9748 7.39452 33.8845 7.62552C33.7827 7.88424 33.2902 8.01108 32.9248 7.9044C32.5038 7.7826 32.2654 7.35672 32.4145 7.13664Z" fill="#33D7CE"/>
</svg>
