<svg width="90" height="90" viewBox="0 0 90 90" fill="none" xmlns="http://www.w3.org/2000/svg">
<path d="M24.21 13.0842L8.95053 14.3748C7.80078 14.472 7.43853 15.741 8.40603 16.2738L20.8125 23.0994C21.6608 23.5656 21.5123 24.651 20.5605 24.9408L6.45303 29.241C5.41128 29.5596 5.36403 30.7926 6.38328 31.1652L21.393 36.6552C22.3628 37.0098 22.3808 38.169 21.4223 38.5452L7.97178 43.8138C6.92553 44.2242 7.06953 45.5184 8.18553 45.7578L20.0655 48.2994C21.114 48.5244 21.3278 49.707 20.4053 50.1858L8.91678 56.151C8.04828 56.601 8.17428 57.7008 9.12828 58.0032L20.6123 61.6356C21.5505 61.9326 21.6923 63.009 20.853 63.4716L8.22378 70.4502C7.31928 70.9488 7.56903 72.1242 8.61978 72.3258L28.6335 76.1886C29.3355 76.3236 30.024 75.9186 30.1163 75.3138L37.296 28.7172C37.3343 28.4634 37.2623 28.2078 37.0913 27.9972L25.335 13.527C25.0853 13.2156 24.6533 13.0464 24.21 13.0842Z" fill="#FFDA2B"/>
<path d="M85.14 77.0148C84.8745 79.1622 83.5515 81.1386 81.4657 82.5066C79.641 83.7036 77.3595 84.3498 75.0195 84.3498C74.6865 84.3498 74.3512 84.3372 74.016 84.3102L31.689 80.9514C29.178 80.7516 26.8492 79.812 25.155 78.3162C24.0997 77.3838 23.337 76.2768 22.914 75.087C22.6575 74.3652 22.5225 73.6146 22.5225 72.8532V18.1548C22.5225 16.3242 23.2942 14.5548 24.6982 13.1256C24.867 12.9546 25.0447 12.7872 25.2292 12.627C26.9707 11.124 29.3557 10.2006 31.9095 10.0422L38.727 9.62101L39.4672 9.57601H39.4695L65.4885 7.97041L69.2032 7.74181C71.892 7.57621 74.5537 8.27101 76.6012 9.67501C78.6487 11.079 79.9177 13.077 80.1247 15.228C80.3317 17.379 79.4632 19.5084 77.7082 21.1464C75.9532 22.7844 73.4557 23.7978 70.767 23.9652L64.3747 24.3594H64.3635L42.8625 25.686V36.6732L43.6702 36.711L47.9497 36.9162C47.9497 36.9162 47.9587 36.9162 47.9745 36.918L57.3952 37.368C60.0885 37.4958 62.6062 38.4768 64.3972 40.0914C66.1882 41.706 67.1017 43.8246 66.942 45.9792C66.7822 48.1338 65.5582 50.1498 63.54 51.5826C61.6747 52.9074 59.2717 53.6328 56.79 53.6328C56.5875 53.6328 56.385 53.6274 56.1825 53.6184L45.3622 53.1018L42.8692 52.983H42.8602V65.4822L63.621 67.1292L76.0207 68.1138C78.705 68.3262 81.1732 69.3846 82.8832 71.055C84.5955 72.7218 85.4055 74.8674 85.14 77.0148Z" fill="#7C76B5"/>
<path opacity="0.22" d="M66.951 45.9918C66.7913 48.1464 65.5673 50.1606 63.549 51.5916C61.6838 52.9164 59.2808 53.6418 56.799 53.6418C56.5965 53.6418 56.394 53.6364 56.1915 53.6274L45.3735 53.1108C63.702 52.83 63.558 51.5862 63.7763 44.658C63.99 37.89 48.6968 36.9756 47.9835 36.936L57.4043 37.386C60.0975 37.5138 62.6153 38.493 64.404 40.1076C66.1973 41.7204 67.1108 43.8372 66.951 45.9918Z" fill="#262626"/>
<path opacity="0.22" d="M77.7172 21.1518C75.9622 22.7898 73.4647 23.8032 70.776 23.9706L64.386 24.3648C74.412 23.2614 77.7712 20.6442 77.8207 16.0308C77.877 10.9062 65.4525 8.03879 65.4525 8.03879L65.4975 7.97759L69.2122 7.74899C71.901 7.58339 74.5627 8.27819 76.6102 9.68219C78.6577 11.0862 79.9245 13.0842 80.1337 15.2352C80.343 17.3844 79.4722 19.512 77.7172 21.1518Z" fill="#262626"/>
<path opacity="0.22" d="M85.1377 77.0112C84.8722 79.1586 83.5492 81.1332 81.4635 82.5012C79.6387 83.6982 77.3572 84.3444 75.0172 84.3444C74.6842 84.3444 74.349 84.3318 74.0137 84.3048L31.689 80.946C29.178 80.7462 26.8492 79.8084 25.155 78.3108C23.4607 76.815 22.5225 74.8674 22.5225 72.8496V71.7174C26.298 80.8866 62.109 82.2312 73.3725 82.4274C76.635 82.485 79.6792 81.081 81.207 78.7734C84.8992 73.197 76.0185 68.1174 76.0185 68.1174L76.0207 68.112C78.705 68.3244 81.1732 69.3828 82.8832 71.0514C84.5932 72.72 85.4032 74.8638 85.1377 77.0112Z" fill="#262626"/>
<path opacity="0.22" d="M63.6211 67.14H43.8368C42.0346 67.14 40.6463 65.8674 40.8916 64.4382L42.8536 52.9902L42.8716 52.9974H42.8626V65.4912L63.6211 67.14Z" fill="#7C76B5"/>
<path opacity="0.22" d="M42.8625 25.6896V36.6894L43.6703 36.7272L42.8535 36.9306L40.8645 24.354H64.3725L64.3658 24.363L42.8625 25.6896Z" fill="#7C76B5"/>
<path opacity="0.22" d="M38.7292 9.6264C35.8447 9.8496 25.5015 11.097 24.876 17.523C24.1492 24.9948 22.5225 60.057 22.5225 60.057V18.1584C22.5225 16.3278 23.2942 14.5584 24.6982 13.1292C24.867 12.9582 25.0447 12.7908 25.2292 12.6306C26.9707 11.1276 29.3557 10.2042 31.9095 10.0458L38.7292 9.6264Z" fill="#262626"/>
<path d="M28.1093 20.637C27.4523 20.1312 28.134 17.73 30.3053 17.2908C31.6373 17.0208 33.2978 17.5392 33.417 18.1908C33.6308 19.3554 29.0115 21.3318 28.1093 20.637Z" fill="#33D7CE"/>
<path d="M69.741 77.8536C69.084 77.3478 69.7657 74.9466 71.937 74.5074C73.269 74.2374 74.9295 74.7558 75.0487 75.4074C75.2625 76.572 70.6432 78.5484 69.741 77.8536Z" fill="#33D7CE"/>
<path d="M24.6398 70.5564C23.9828 70.0506 24.6645 67.6494 26.8358 67.2102C28.1678 66.9402 29.8283 67.4586 29.9475 68.1102C30.1613 69.2748 25.542 71.2512 24.6398 70.5564Z" fill="#33D7CE"/>
<path d="M28.0845 53.496C27.4275 52.9902 28.1092 50.589 30.2805 50.1498C31.6125 49.8798 33.273 50.3982 33.3922 51.0498C33.606 52.2144 28.9867 54.1908 28.0845 53.496Z" fill="#33D7CE"/>
<path d="M68.6408 12.1824C68.5823 11.601 70.7063 10.4832 72.3893 11.1618C73.4243 11.5794 74.1083 12.6018 73.7236 13.0374C73.0373 13.8132 68.7218 12.9816 68.6408 12.1824Z" fill="#33D7CE"/>
<path d="M31.9995 24.0516C31.7272 23.2884 32.9017 22.122 34.2765 21.9816C35.8875 21.816 37.4895 23.085 37.2915 23.8824C37.134 24.5124 35.8695 24.777 35.5725 24.8382C34.2472 25.1136 32.2965 24.8778 31.9995 24.0516Z" fill="#33D7CE"/>
<path d="M73.7416 14.157C74.5516 13.6962 76.3156 14.1948 76.9411 15.1848C77.6746 16.3458 76.7116 17.9766 75.7058 18.0918C74.9116 18.1836 74.1781 17.3178 74.0048 17.1126C73.2376 16.2072 72.8663 14.6556 73.7416 14.157Z" fill="#33D7CE"/>
<path d="M77.697 74.3436C78.507 73.8828 80.271 74.3814 80.8965 75.3714C81.63 76.5324 80.667 78.1632 79.6612 78.2784C78.867 78.3702 78.1335 77.5044 77.9602 77.2992C77.193 76.3938 76.8195 74.8422 77.697 74.3436Z" fill="#33D7CE"/>
<path d="M26.3835 44.1432C27.1935 43.6824 28.9575 44.181 29.583 45.171C30.3165 46.332 29.3535 47.9628 28.3478 48.078C27.5535 48.1698 26.82 47.304 26.6468 47.0988C25.8795 46.1934 25.5083 44.6418 26.3835 44.1432Z" fill="#33D7CE"/>
<path d="M29.151 72.2862C29.961 71.8254 31.725 72.324 32.3505 73.314C33.084 74.475 32.121 76.1058 31.1152 76.221C30.321 76.3128 29.5875 75.447 29.4142 75.2418C28.647 74.3364 28.2735 72.7848 29.151 72.2862Z" fill="#33D7CE"/>
<path d="M28.755 24.6708C28.1385 24.5934 27.3825 24.939 27.2205 25.5276C27.0765 26.0478 27.4297 26.622 28.089 26.8038C28.8247 27.0072 29.5987 26.6238 29.817 26.109C30.0487 25.5618 29.5627 25.0776 29.5335 25.0506C29.4615 24.9822 29.1937 24.7248 28.755 24.6708Z" fill="#33D7CE"/>
<path d="M75.4336 77.1912C74.8171 77.1138 74.0611 77.4594 73.8991 78.048C73.7551 78.5682 74.1083 79.1424 74.7676 79.3242C75.5033 79.5276 76.2773 79.1442 76.4956 78.6294C76.7273 78.0822 76.2413 77.598 76.2121 77.571C76.1401 77.5026 75.8723 77.2452 75.4336 77.1912Z" fill="#33D7CE"/>
<path d="M69.4597 15.2928C69.8377 14.7312 71.4532 14.7114 72.2047 15.3342C72.2362 15.3612 72.8032 15.8454 72.6097 16.3404C72.3915 16.8948 71.3362 17.1666 70.5532 16.938C69.651 16.677 69.1402 15.7644 69.4597 15.2928Z" fill="#33D7CE"/>
</svg>
