<svg width="53" height="54" viewBox="0 0 53 54" fill="none" xmlns="http://www.w3.org/2000/svg">
<g clip-path="url(#clip0_137_272)">
<path d="M42.7166 7.21703C38.3849 2.88552 32.6259 0.5 26.5 0.5C20.3741 0.5 14.6149 2.88552 10.2832 7.21703C5.95182 11.5486 3.56641 17.3077 3.56641 23.4337C3.56641 29.5596 5.95182 35.3187 10.2833 39.6503L22.468 51.8347C23.5416 52.9086 24.9736 53.5 26.5001 53.5C28.0264 53.5 29.4584 52.9086 30.5321 51.8348L42.7166 39.6503C47.0481 35.3187 49.4336 29.5596 49.4336 23.4337C49.4336 17.3077 47.0481 11.5485 42.7166 7.21703ZM40.5208 37.4545L28.3362 49.639C27.849 50.1262 27.1969 50.3945 26.5001 50.3945C25.8032 50.3945 25.1513 50.1262 24.6641 49.639L12.4793 37.4545C4.74845 29.7233 4.74845 17.144 12.4793 9.4128C16.2242 5.66791 21.2036 3.60547 26.5 3.60547C31.7964 3.60547 36.7758 5.66791 40.5208 9.4129C48.2515 17.144 48.2515 29.7234 40.5208 37.4545Z" fill="#616158"/>
<path d="M26.4997 13.8628C21.2227 13.8628 16.9294 18.1563 16.9292 23.4338C16.9294 28.7109 21.2229 33.0043 26.5 33.0045H26.5002C31.7773 33.0045 36.0706 28.7111 36.0706 23.4338C36.0704 18.1568 31.777 13.8633 26.4997 13.8628ZM26.5003 29.899C22.9353 29.8988 20.0349 26.9985 20.0347 23.4338C20.0348 19.8688 22.9351 16.9683 26.4996 16.9683C30.0645 16.9686 32.9649 19.8691 32.9651 23.4339C32.9651 26.9987 30.0649 29.899 26.5003 29.899Z" fill="#616158"/>
</g>
<defs>
<clipPath id="clip0_137_272">
<rect width="53" height="53" fill="white" transform="translate(0 0.5)"/>
</clipPath>
</defs>
</svg>
