<svg width="53" height="54" viewBox="0 0 53 54" fill="none" xmlns="http://www.w3.org/2000/svg">
<g clip-path="url(#clip0_137_304)">
<path d="M14.0781 0.5C11.5096 0.5 9.41992 2.58972 9.41992 5.1582V48.8418C9.41992 51.4103 11.5096 53.5 14.0781 53.5H38.9219C41.4904 53.5 43.5801 51.4103 43.5801 48.8418V5.1582C43.5801 2.58972 41.4904 0.5 38.9219 0.5H14.0781ZM40.4746 41.0781H12.5254V9.81641H40.4746V41.0781ZM38.9219 50.3945H14.0781C13.2221 50.3945 12.5254 49.6978 12.5254 48.8418V44.1836H24.9473V45.7363C24.9473 46.594 25.6424 47.2891 26.5 47.2891C27.3576 47.2891 28.0527 46.594 28.0527 45.7363V44.1836H40.4746V48.8418C40.4746 49.6978 39.7779 50.3945 38.9219 50.3945ZM40.4746 5.1582V6.71094H12.5254V5.1582C12.5254 4.30218 13.2221 3.60547 14.0781 3.60547H38.9219C39.7779 3.60547 40.4746 4.30218 40.4746 5.1582Z" fill="#616158"/>
</g>
<defs>
<clipPath id="clip0_137_304">
<rect width="53" height="53" fill="white" transform="translate(0 0.5)"/>
</clipPath>
</defs>
</svg>
