<svg width="53" height="53" viewBox="0 0 53 53" fill="none" xmlns="http://www.w3.org/2000/svg">
<g clip-path="url(#clip0_137_323)">
<path d="M52.1887 5.69701C51.5418 4.90281 50.5709 4.46533 49.4546 4.46533C48.8523 4.46533 48.2142 4.59142 47.5581 4.83997L2.68706 21.841C0.301243 22.7451 -0.0198743 24.1061 0.00103664 24.8368C0.0218441 25.5639 0.416357 26.8946 2.8178 27.6627L12.3338 31.15L17.349 42.63C17.8532 44.2177 18.9066 45.3316 20.2511 45.6929C20.561 45.7762 20.8775 45.8172 21.1962 45.8172C22.2882 45.8172 23.4062 45.3364 24.3717 44.4295L28.5268 40.5258L38.6649 47.5039C39.578 48.1786 40.5715 48.5349 41.5402 48.5348C43.5064 48.5347 45.0747 47.0954 45.5354 44.8678L52.874 9.37485C53.1756 7.91615 52.9322 6.61005 52.1887 5.69701ZM15.4875 30.6111L28.4369 23.667L19.4121 31.9453C19.0908 32.24 18.9118 32.6552 18.9112 33.0879C18.9106 33.1039 18.9087 33.1194 18.9086 33.1354L18.8774 38.3705L15.4875 30.6111ZM22.2454 42.166C22.1496 42.2559 22.0537 42.335 21.9589 42.4039L21.9969 36.0311L25.909 38.7239L22.2454 42.166ZM49.8327 8.74597L42.4942 44.2389C42.4202 44.5967 42.179 45.4292 41.54 45.4292C41.2415 45.4292 40.8714 45.2756 40.4976 44.9965C40.4816 44.9845 40.4653 44.9729 40.4489 44.9616L29.272 37.2686C29.2704 37.2675 29.2689 37.2665 29.2674 37.2655L22.9482 32.9159L39.6412 17.6037C40.218 17.0746 40.3109 16.199 39.8578 15.5607C39.4048 14.9224 38.5474 14.7211 37.8577 15.091L13.3708 28.2224L3.85455 24.7352C3.84761 24.7326 3.84068 24.7301 3.83364 24.7276L48.6585 7.7441C49.0362 7.60094 49.2999 7.57092 49.4546 7.57092C49.5313 7.57092 49.7166 7.5794 49.7805 7.65808C49.8626 7.7588 49.966 8.10135 49.8327 8.74597Z" fill="#616158"/>
</g>
<defs>
<clipPath id="clip0_137_323">
<rect width="53" height="53" fill="white"/>
</clipPath>
</defs>
</svg>
