<svg width="53" height="53" viewBox="0 0 53 53" fill="none" xmlns="http://www.w3.org/2000/svg">
<path d="M45.2382 7.7616C40.2329 2.75641 33.5782 0 26.4998 0C26.4994 0 26.5 0 26.4996 0C19.4218 0 12.7666 2.75673 7.7616 7.7616C2.75652 12.7668 0 19.4215 0 26.5C0.000207031 31.0059 1.14695 35.4346 3.32202 39.3517L0.0573477 51.0291C-0.0935781 51.5691 0.0583828 52.1486 0.454848 52.5451C0.851313 52.9415 1.43059 53.0934 1.97094 52.9426L13.6486 49.6778C17.5653 51.8531 21.9938 52.9999 26.4999 53C33.5784 53 40.2331 50.2435 45.2384 45.2383C50.2437 40.2331 53 33.5783 53 26.4999C52.9998 19.4214 50.2432 12.7668 45.2382 7.7616ZM26.4998 49.8945C22.3234 49.8944 18.2238 48.7794 14.644 46.6699C14.403 46.5278 14.1305 46.4549 13.8558 46.4549C13.7156 46.4549 13.575 46.4739 13.4377 46.5123L3.79064 49.2093L6.48763 39.5625C6.6014 39.1557 6.54447 38.7202 6.33008 38.3563C4.22064 34.776 3.10568 30.6761 3.10547 26.4999C3.10547 20.251 5.53891 14.3761 9.95758 9.95748C14.3763 5.53881 20.2511 3.10547 26.4998 3.10547C39.3993 3.10547 49.8941 13.6002 49.8945 26.4999C49.8945 39.3997 39.3997 49.8945 26.4998 49.8945Z" fill="#616158"/>
<path d="M37.9392 28.4855C36.9901 27.5363 35.7244 27.0135 34.3754 27.0135C33.0264 27.0135 31.7608 27.5363 30.8119 28.4854L30.092 29.2051C29.9145 29.3826 29.6759 29.4804 29.4203 29.4804C29.1645 29.4804 28.9259 29.3826 28.7481 29.2047L23.7925 24.2492C23.615 24.0718 23.5172 23.8331 23.5171 23.5773C23.5171 23.3215 23.6147 23.083 23.7921 22.9057L24.5121 22.1857C26.4772 20.2207 26.4772 17.0233 24.5122 15.0583L23.0722 13.6179C22.1229 12.6689 20.8573 12.1465 19.5084 12.1465C18.1595 12.1465 16.8939 12.669 15.9447 13.6183L14.871 14.6921C12.601 16.9621 11.777 20.3425 12.5506 24.2109C13.2786 27.8509 15.3596 31.5359 18.4103 34.5869C22.2548 38.431 27.151 40.7261 31.5081 40.7264H31.509C34.2543 40.7264 36.6046 39.8275 38.3053 38.1268L39.379 37.0531C41.3441 35.088 41.3441 31.8904 39.379 29.9252L37.9392 28.4855ZM37.1833 34.8572L36.1095 35.931C35.0037 37.0366 33.4131 37.621 31.5091 37.621H31.5085C27.9567 37.6207 23.8811 35.6656 20.6064 32.3911C17.9843 29.7689 16.2049 26.6475 15.5959 23.6019C15.0325 20.7846 15.5549 18.4003 17.0671 16.888L18.1406 15.8142C18.5032 15.4517 18.9889 15.2521 19.5085 15.2521C20.0282 15.2521 20.5141 15.4517 20.8765 15.814L22.3163 17.2542C23.0706 18.0085 23.0706 19.2356 22.3165 19.9899L21.5964 20.7098C20.8323 21.4738 20.4117 22.4924 20.4118 23.5778C20.4119 24.6631 20.8328 25.6816 21.5967 26.4454L26.5523 31.4008C27.3165 32.1652 28.3351 32.5861 29.4204 32.5861C30.5056 32.5861 31.524 32.1653 32.2879 31.4013L33.0079 30.6815C33.3704 30.3189 33.8561 30.1192 34.3755 30.1192C34.895 30.1192 35.3807 30.3189 35.7435 30.6816L37.1833 32.1214C37.9375 32.8755 37.9376 34.1029 37.1833 34.8572Z" fill="#616158"/>
</svg>
